<?xml version="1.0" standalone="no"?>
<!DOCTYPE svg PUBLIC "-//W3C//DTD SVG 20010904//EN"
 "http://www.w3.org/TR/2001/REC-SVG-20010904/DTD/svg10.dtd">
<svg version="1.0" xmlns="http://www.w3.org/2000/svg"
 width="100px" height="40px" viewBox="0 0 1000.000000 1080.000000"
 preserveAspectRatio="xMidYMid meet">

<g transform="translate(0.000000,1080.000000) scale(0.100000,-0.100000)"
fill="#ababab" stroke="none">
<path d="M3258 9749 c-249 -10 -361 -29 -512 -91 -258 -106 -465 -270 -610
-486 -139 -207 -213 -419 -236 -677 -12 -130 -12 -4431 0 -4595 23 -330 157
-618 397 -855 187 -185 409 -305 686 -372 66 -16 171 -17 1250 -20 l1177 -4 0
1231 0 1230 -342 2 -343 3 -3 473 -2 472 343 0 344 0 6 293 c7 309 14 398 48
567 58 288 172 510 364 705 167 171 370 268 680 327 96 18 160 21 513 25 l402
5 -2 -474 -3 -473 -315 -5 c-291 -6 -319 -8 -373 -28 -136 -50 -218 -117 -261
-212 -46 -102 -57 -185 -63 -467 l-6 -263 512 0 511 0 -2 -472 -3 -473 -507
-3 -508 -2 0 -1231 0 -1230 723 4 c786 4 756 2 944 63 406 133 732 456 861
854 73 223 67 -2 67 2630 0 2233 -1 2370 -18 2453 -55 272 -184 515 -374 703
-181 181 -381 294 -635 359 -87 22 -138 28 -323 35 -242 10 -4120 9 -4387 -1z"/>
</g>
</svg>
