<?xml version="1.0" standalone="no"?>
<!DOCTYPE svg PUBLIC "-//W3C//DTD SVG 20010904//EN"
 "http://www.w3.org/TR/2001/REC-SVG-20010904/DTD/svg10.dtd">
<svg version="1.0" xmlns="http://www.w3.org/2000/svg"
 width="100px" height="40px" viewBox="0 0 980.000000 980.000000"
 preserveAspectRatio="xMidYMid meet">

<g transform="translate(0.000000,980.000000) scale(0.100000,-0.100000)"
fill="#ababab" stroke="none">
<path d="M3565 8890 c-469 -16 -725 -43 -964 -101 -439 -108 -784 -303 -1072
-607 -215 -227 -358 -472 -464 -797 -140 -424 -165 -794 -165 -2475 0 -916 8
-1401 30 -1745 49 -760 296 -1308 773 -1714 307 -260 715 -429 1199 -496 296
-40 821 -55 2003 -55 1663 0 2040 24 2455 155 367 116 646 288 901 552 333
346 529 800 593 1373 34 305 41 619 41 1920 0 1563 -10 1832 -86 2202 -89 438
-264 791 -538 1080 -245 259 -517 430 -868 547 -258 86 -519 129 -923 152
-238 14 -2556 20 -2915 9z m2915 -729 c393 -24 618 -69 854 -173 276 -121 536
-381 655 -655 175 -403 197 -722 188 -2688 -6 -1330 -16 -1557 -78 -1839 -99
-452 -345 -786 -716 -970 -249 -124 -484 -172 -956 -198 -325 -18 -2752 -18
-3062 0 -451 26 -649 64 -900 174 -273 120 -528 374 -650 646 -112 252 -153
462 -177 907 -18 338 -18 2732 0 3070 25 469 75 703 202 957 120 240 338 457
574 572 278 136 549 185 1121 205 351 12 2714 6 2945 -8z"/>
<path d="M6975 7508 c-114 -13 -207 -61 -287 -146 -98 -104 -133 -204 -126
-354 5 -91 8 -105 46 -182 52 -104 124 -174 232 -225 64 -30 88 -35 165 -39
157 -7 274 38 374 143 92 97 131 197 131 335 0 128 -40 228 -128 322 -106 113
-249 165 -407 146z"/>
<path d="M4705 6944 c-16 -2 -66 -9 -110 -15 -272 -36 -589 -158 -826 -317
-453 -304 -755 -745 -873 -1272 -66 -299 -61 -643 15 -945 89 -355 277 -683
539 -945 306 -307 670 -494 1120 -577 122 -22 502 -25 630 -4 311 49 589 158
846 330 468 314 777 795 879 1366 23 124 31 404 16 546 -79 763 -580 1421
-1293 1699 -246 96 -433 132 -713 135 -110 2 -213 1 -230 -1z m425 -730 c277
-49 506 -169 711 -373 441 -441 520 -1096 196 -1641 -42 -72 -147 -198 -224
-271 -222 -208 -487 -328 -798 -359 -265 -27 -568 43 -800 184 -191 116 -366
294 -474 486 -291 512 -214 1149 189 1573 316 333 755 479 1200 401z"/>
</g>
</svg>
