<?xml version="1.0" standalone="no"?>
<!DOCTYPE svg PUBLIC "-//W3C//DTD SVG 20010904//EN"
 "http://www.w3.org/TR/2001/REC-SVG-20010904/DTD/svg10.dtd">
<svg version="1.0" xmlns="http://www.w3.org/2000/svg"
 width="100px" height="40px" viewBox="0 0 800.000000 800.000000"
 preserveAspectRatio="xMidYMid meet">

<g transform="translate(0.000000,800.000000) scale(0.100000,-0.100000)"
fill="#42210b" stroke="none">
<path d="M2000 7489 c-214 -9 -337 -24 -452 -55 -255 -68 -447 -175 -621 -347
-183 -181 -291 -372 -362 -640 -60 -228 -65 -408 -65 -2472 0 -2048 4 -2189
67 -2430 136 -521 523 -887 1052 -995 215 -44 291 -45 2381 -45 2101 0 2181 2
2389 46 186 41 340 103 475 193 293 195 480 459 570 806 61 233 66 407 66
2475 0 1708 -5 2049 -31 2250 -32 246 -127 483 -271 674 -69 92 -209 224 -308
290 -115 77 -179 110 -293 150 -193 68 -299 85 -627 101 -238 11 -3716 11
-3970 -1z m200 -971 c117 -28 256 -117 328 -211 76 -98 131 -251 132 -364 0
-152 -66 -309 -180 -424 -238 -241 -598 -241 -841 1 -243 241 -238 610 12 851
144 139 349 194 549 147z m3193 -1559 c154 -14 320 -55 432 -108 370 -173 558
-527 604 -1136 7 -85 11 -528 11 -1127 0 -884 -2 -988 -16 -1002 -14 -14 -73
-16 -503 -16 -365 0 -490 3 -499 12 -9 9 -12 221 -12 893 0 906 -4 1031 -41
1184 -40 170 -130 297 -251 354 -207 98 -542 39 -688 -119 -85 -94 -128 -197
-155 -374 -12 -78 -15 -259 -15 -1000 0 -803 -2 -908 -16 -928 l-15 -22 -493
0 c-369 0 -495 3 -504 12 -9 9 -12 388 -12 1644 l0 1633 22 15 c20 14 82 16
476 16 293 0 460 -4 473 -10 18 -10 19 -23 19 -223 l1 -212 35 40 c199 222
272 285 419 362 209 109 415 140 728 112z m-2837 -83 c19 -14 19 -44 21 -1633
2 -1292 0 -1623 -10 -1643 l-13 -25 -493 -3 c-356 -1 -498 1 -507 9 -12 10
-14 278 -14 1645 0 1471 2 1634 16 1648 14 14 73 16 498 16 401 0 485 -2 502
-14z"/>
</g>
</svg>
