<?xml version="1.0" standalone="no"?>
<!DOCTYPE svg PUBLIC "-//W3C//DTD SVG 20010904//EN"
 "http://www.w3.org/TR/2001/REC-SVG-20010904/DTD/svg10.dtd">
<svg version="1.0" xmlns="http://www.w3.org/2000/svg"
 width="50px" height="48px" viewBox="0 0 500.000000 500.000000"
 preserveAspectRatio="xMidYMid meet">

<g transform="translate(0.000000,500.000000) scale(0.100000,-0.100000)"
fill="#42210b" stroke="none">
<path d="M2250 4453 c-226 -11 -498 -58 -681 -117 -347 -112 -597 -318 -742
-611 -85 -173 -124 -310 -169 -600 -17 -111 -17 -671 0 -790 67 -458 172 -707
385 -912 113 -108 352 -248 464 -271 l38 -8 5 -251 c5 -234 6 -254 26 -280 44
-60 121 -76 193 -39 14 8 114 113 221 235 l195 221 50 -8 c80 -11 559 -7 685
7 105 11 237 32 300 46 14 4 45 11 70 17 90 21 281 88 352 124 234 118 436
323 542 549 77 164 116 308 158 580 17 112 17 662 0 780 -63 433 -172 686
-388 902 -255 255 -618 386 -1174 423 -135 9 -377 10 -530 3z m720 -302 c385
-56 615 -145 788 -306 129 -119 192 -233 261 -470 36 -123 54 -335 54 -640 0
-363 -19 -536 -79 -725 -110 -349 -359 -555 -784 -649 -137 -30 -286 -49 -440
-56 -74 -3 -157 -7 -185 -9 -27 -2 -115 -1 -194 3 l-143 6 -147 -174 c-80 -96
-182 -217 -226 -269 -44 -53 -93 -112 -110 -133 -39 -49 -71 -67 -93 -52 -15
9 -18 46 -22 363 l-5 352 -56 17 c-30 10 -102 42 -160 72 -80 42 -120 70 -174
124 -258 260 -328 500 -328 1135 1 370 16 509 79 715 133 437 495 656 1169
709 100 8 722 -3 795 -13z"/>
<path d="M2446 3737 c-12 -9 -17 -23 -14 -42 3 -30 3 -30 88 -37 259 -23 452
-107 610 -267 112 -113 198 -262 236 -408 19 -74 35 -229 28 -274 -7 -39 13
-69 45 -69 44 0 57 70 41 207 -21 176 -79 335 -169 466 -166 240 -417 391
-711 427 -110 13 -132 13 -154 -3z"/>
<path d="M1725 3618 c-113 -60 -203 -149 -235 -235 -24 -63 -25 -94 -6 -165
62 -237 177 -465 349 -692 56 -74 284 -311 382 -397 62 -54 221 -171 300 -219
168 -104 442 -215 560 -227 71 -8 133 24 217 109 105 107 151 221 115 284 -20
35 -376 296 -423 310 -67 20 -103 5 -170 -72 -69 -79 -96 -94 -166 -94 -236 0
-614 370 -645 631 -8 65 17 112 82 155 61 41 95 95 95 152 0 36 -16 63 -149
249 -94 132 -158 213 -175 221 -39 18 -85 14 -131 -10z"/>
<path d="M2521 3468 c-17 -43 8 -62 90 -69 284 -25 502 -248 525 -539 7 -93
15 -110 50 -110 37 0 48 32 40 121 -14 169 -76 301 -200 424 -123 123 -285
195 -438 195 -52 0 -60 -3 -67 -22z"/>
<path d="M2597 3212 c-12 -13 -16 -28 -12 -41 7 -22 16 -26 85 -36 124 -20
191 -95 218 -245 7 -43 9 -45 42 -45 l35 0 3 56 c8 157 -131 308 -299 326 -46
4 -57 2 -72 -15z"/>
</g>
</svg>
