<?xml version="1.0" standalone="no"?>
<!DOCTYPE svg PUBLIC "-//W3C//DTD SVG 20010904//EN"
 "http://www.w3.org/TR/2001/REC-SVG-20010904/DTD/svg10.dtd">
<svg version="1.0" xmlns="http://www.w3.org/2000/svg"
 width="90px" height="66px" viewBox="0 0 481.000000 519.000000"
 preserveAspectRatio="xMidYMid meet">

<g transform="translate(0.000000,540.000000) scale(0.100000,-0.10000)"
fill="#42210b" stroke="none">
<path d="M1343 4345 c-90 -25 -146 -57 -214 -124 -68 -69 -101 -125 -125 -214
-21 -77 -21 -2047 0 -2124 21 -80 53 -138 107 -198 62 -67 123 -108 197 -132
54 -17 118 -18 1097 -18 967 0 1044 1 1095 18 133 42 242 148 294 285 21 57
21 61 24 1094 2 1030 2 1038 -19 1100 -52 158 -173 271 -336 313 -82 21 -2040
21 -2120 0z m1247 -279 c328 -55 612 -243 779 -516 206 -338 213 -778 18
-1118 -60 -105 -100 -156 -189 -244 -160 -158 -346 -255 -573 -299 -219 -42
-468 -11 -660 82 -33 16 -68 29 -78 29 -11 0 -94 -25 -186 -54 -91 -30 -197
-65 -236 -76 -38 -12 -94 -30 -124 -41 -30 -10 -56 -17 -58 -16 -3 3 73 245
88 282 5 11 31 84 58 163 l50 143 -43 87 c-87 174 -111 277 -111 482 0 161 11
230 57 363 29 87 93 211 145 285 56 78 178 200 258 257 229 163 534 235 805
191z"/>
<path d="M2260 3875 c-367 -73 -619 -315 -728 -695 -22 -77 -22 -343 0 -420
32 -109 65 -187 117 -269 l34 -55 -53 -157 c-29 -86 -51 -161 -49 -167 2 -5
77 14 172 44 l168 54 57 -33 c57 -34 159 -75 242 -99 28 -8 105 -13 205 -13
148 0 167 2 250 29 321 101 539 319 636 636 20 64 23 97 24 235 0 199 -18 277
-101 436 -159 301 -479 492 -819 488 -49 0 -119 -7 -155 -14z m-112 -373 c28
-28 115 -269 108 -297 -4 -14 -26 -47 -51 -75 -25 -28 -45 -57 -45 -64 0 -26
84 -142 154 -211 67 -66 189 -148 242 -161 19 -5 32 4 70 45 26 29 54 60 61
71 21 29 43 25 145 -26 158 -79 168 -88 168 -137 0 -68 -59 -144 -155 -202
-93 -55 -173 -42 -410 70 -146 69 -296 205 -417 380 -165 236 -189 405 -78
546 56 70 166 103 208 61z"/>
</g>
</svg>
